<?xml version="1.0" encoding="UTF-8" standalone="no"?>
<svg
   xmlns:dc="http://purl.org/dc/elements/1.1/"
   xmlns:cc="http://creativecommons.org/ns#"
   xmlns:rdf="http://www.w3.org/1999/02/22-rdf-syntax-ns#"
   xmlns:svg="http://www.w3.org/2000/svg"
   xmlns="http://www.w3.org/2000/svg"
   viewBox="0 0 397.17334 162.36"
   height="162.36"
   width="397.17334"
   xml:space="preserve"
   id="svg2"
   version="1.1"><metadata
     id="metadata8"><rdf:RDF><cc:Work
         rdf:about=""><dc:format>image/svg+xml</dc:format><dc:type
           rdf:resource="http://purl.org/dc/dcmitype/StillImage" /></cc:Work></rdf:RDF></metadata><defs
     id="defs6" /><g
     transform="matrix(1.3333333,0,0,-1.3333333,0,162.36)"
     id="g10"><g
       transform="scale(0.1)"
       id="g12"><path
         id="path14"
         style="fill:#f8b80c;fill-opacity:1;fill-rule:nonzero;stroke:none"
         d="m 842.883,1217.7 c 0,0 -256.199,-164.63 -269.985,-338.231 C 825.137,897.504 1024.56,671.797 993.992,425.512 963.508,179.199 745.84,2.14063 476.277,0.109375 185.414,-5.62109 -6.91406,221.332 0.191406,476.293 9.19531,890.191 459.23,1158 842.883,1217.7" /><path
         id="path16"
         style="fill:#f1501d;fill-opacity:1;fill-rule:nonzero;stroke:none"
         d="m 618.574,691.734 c 0,0 -143.199,-91.32 -151.101,-187.414 C 608.34,514.535 719.496,389.809 702.219,253.48 684.977,117.141 563.297,18.9883 412.75,17.6211 250.316,14.1914 143.137,139.609 147.324,280.707 c 5.406,229.063 256.93,377.641 471.25,411.027" /><path
         id="path18"
         style="fill:#211d1d;fill-opacity:1;fill-rule:nonzero;stroke:none"
         d="m 1704.98,336.332 c -59.09,0 -103.95,12.578 -142.26,51.426 l 49.24,49.25 c 24.63,-24.621 58.01,-32.824 94.11,-32.824 44.88,0 68.95,16.953 68.95,48.144 0,13.684 -3.84,25.176 -12.04,32.832 -7.66,7.11 -16.41,10.938 -34.47,13.672 l -47.05,6.574 c -33.38,4.922 -58,15.321 -75.51,32.274 -18.61,18.613 -27.91,43.781 -27.91,76.605 0,69.492 51.43,118.192 135.7,118.192 53.61,0 92.46,-13.129 125.84,-45.418 l -48.14,-47.602 c -24.63,23.531 -54.17,26.813 -79.89,26.813 -40.49,0 -60.19,-22.43 -60.19,-49.243 0,-9.855 3.28,-20.246 11.49,-27.902 7.67,-7.117 20.25,-13.145 36.11,-15.332 l 45.97,-6.563 c 35.56,-4.921 57.99,-14.765 74.42,-30.097 20.78,-19.688 30.08,-48.145 30.08,-82.617 0,-75.508 -62.92,-118.184 -144.45,-118.184" /><path
         id="path20"
         style="fill:#211d1d;fill-opacity:1;fill-rule:nonzero;stroke:none"
         d="m 2023.97,563.949 c -42.68,0 -48.15,-35.019 -48.15,-81.523 0,-46.512 5.47,-82.071 48.15,-82.071 42.68,0 48.15,35.559 48.15,82.071 0,46.504 -5.47,81.523 -48.15,81.523 z m 90.28,-201.902 c -15.86,-15.871 -41.58,-25.715 -69.49,-25.715 -29,0 -50.34,7.656 -68.94,28.457 V 235.102 h -71.13 v 389.586 h 68.94 v -26.813 c 19.7,21.887 41.04,30.094 71.13,30.094 27.91,0 53.63,-9.848 69.49,-25.719 28.46,-28.457 29,-77.148 29,-119.824 0,-42.676 -0.54,-91.934 -29,-120.379" /><path
         id="path22"
         style="fill:#211d1d;fill-opacity:1;fill-rule:nonzero;stroke:none"
         d="m 2344.6,459.984 h -56.35 c -25.72,0 -39.95,-12.031 -39.95,-32.285 0,-19.687 13.14,-32.82 41.05,-32.82 19.68,0 32.27,1.641 44.86,13.68 7.66,7.109 10.39,18.593 10.39,36.113 z m 1.64,-120.371 v 24.629 c -19.14,-19.16 -37.21,-27.363 -70.04,-27.363 -32.27,0 -55.8,8.203 -72.76,25.168 -15.32,15.867 -23.53,38.855 -23.53,64.012 0,45.421 31.18,82.629 97.39,82.629 h 67.3 v 14.226 c 0,31.191 -15.31,44.863 -53.07,44.863 -27.36,0 -39.94,-6.562 -54.72,-23.523 l -45.41,44.324 c 27.91,30.637 55.26,39.391 102.87,39.391 79.88,0 121.46,-33.922 121.46,-100.68 V 339.613 h -69.49" /><path
         id="path24"
         style="fill:#211d1d;fill-opacity:1;fill-rule:nonzero;stroke:none"
         d="m 2636.23,546.988 c -10.94,10.946 -20.24,16.961 -37.75,16.961 -21.89,0 -45.96,-16.414 -45.96,-52.527 V 339.613 h -71.13 v 285.075 h 69.49 v -27.36 c 13.68,16.41 41.03,30.641 71.68,30.641 27.9,0 47.6,-7.114 67.29,-26.813 l -53.62,-54.168" /><path
         id="path26"
         style="fill:#211d1d;fill-opacity:1;fill-rule:nonzero;stroke:none"
         d="m 2890.65,339.613 -70.02,118.731 -30.1,-33.926 v -84.805 h -71.14 v 389.582 h 71.14 V 508.141 l 94.66,116.547 h 85.9 L 2869.32,509.781 2978.75,339.613 h -88.1" /></g></g></svg>