<?xml version="1.0" encoding="UTF-8" standalone="no"?>
<svg
   xmlns:dc="http://purl.org/dc/elements/1.1/"
   xmlns:cc="http://creativecommons.org/ns#"
   xmlns:rdf="http://www.w3.org/1999/02/22-rdf-syntax-ns#"
   xmlns:svg="http://www.w3.org/2000/svg"
   xmlns="http://www.w3.org/2000/svg"
   viewBox="0 0 507.41333 145.77333"
   height="145.77333"
   width="507.41333"
   xml:space="preserve"
   id="svg2"
   version="1.1"><metadata
     id="metadata8"><rdf:RDF><cc:Work
         rdf:about=""><dc:format>image/svg+xml</dc:format><dc:type
           rdf:resource="http://purl.org/dc/dcmitype/StillImage" /></cc:Work></rdf:RDF></metadata><defs
     id="defs6"><clipPath
       id="clipPath36"
       clipPathUnits="userSpaceOnUse"><path
         id="path34"
         d="M 556.426,264.305 C 488.684,178.719 364.375,164.266 278.746,232 193.152,299.785 178.723,424.09 246.48,509.688 c 67.758,85.585 192.071,100.046 277.641,32.265 85.59,-67.746 100.043,-192.051 32.305,-277.648 z M 727.992,647.344 C 595.512,826.527 342.836,864.398 163.652,731.902 -15.5352,599.441 -53.4063,346.766 79.0664,167.547 211.559,-11.6289 464.234,-49.4609 643.453,82.9883 822.637,215.488 860.469,468.164 727.992,647.344 Z" /></clipPath><radialGradient
       id="radialGradient48"
       spreadMethod="pad"
       gradientTransform="matrix(403.535,0,0,-403.535,403.535,407.45)"
       gradientUnits="userSpaceOnUse"
       r="1"
       cy="0"
       cx="0"
       fy="0"
       fx="0"><stop
         id="stop38"
         offset="0"
         style="stop-opacity:1;stop-color:#f9b41f" /><stop
         id="stop40"
         offset="0.314607"
         style="stop-opacity:1;stop-color:#f9b41f" /><stop
         id="stop42"
         offset="0.691011"
         style="stop-opacity:1;stop-color:#f6812e" /><stop
         id="stop44"
         offset="0.97191"
         style="stop-opacity:1;stop-color:#f04020" /><stop
         id="stop46"
         offset="1"
         style="stop-opacity:1;stop-color:#f04020" /></radialGradient><clipPath
       id="clipPath58"
       clipPathUnits="userSpaceOnUse"><path
         id="path56"
         d="M 0,0 H 3806 V 1093 H 0 Z" /></clipPath><clipPath
       id="clipPath64"
       clipPathUnits="userSpaceOnUse"><path
         id="path62"
         d="M 10.9531,451.746 C 131.813,1233.81 652.891,755.023 911.988,1093.29 902.875,1035.36 886.543,976.133 862.129,915.656 652.008,546.082 188.676,975.746 10.9531,451.746 Z" /></clipPath><linearGradient
       id="linearGradient78"
       spreadMethod="pad"
       gradientTransform="matrix(-328.115,316.841,316.841,328.115,605.923,633.031)"
       gradientUnits="userSpaceOnUse"
       y2="0"
       x2="1"
       y1="0"
       x1="0"><stop
         id="stop66"
         offset="0"
         style="stop-opacity:1;stop-color:#fab220" /><stop
         id="stop68"
         offset="0.016854"
         style="stop-opacity:1;stop-color:#fab220" /><stop
         id="stop70"
         offset="0.314607"
         style="stop-opacity:1;stop-color:#fab220" /><stop
         id="stop72"
         offset="0.691011"
         style="stop-opacity:1;stop-color:#f6822e" /><stop
         id="stop74"
         offset="0.97191"
         style="stop-opacity:1;stop-color:#f0421e" /><stop
         id="stop76"
         offset="1"
         style="stop-opacity:1;stop-color:#f0421e" /></linearGradient><clipPath
       id="clipPath88"
       clipPathUnits="userSpaceOnUse"><path
         id="path86"
         d="M 185.152,338.543 C 305.996,1120.58 679.039,467.605 938.129,805.879 929.023,747.941 912.668,688.719 888.277,628.242 678.152,258.66 362.859,862.52 185.152,338.543 Z" /></clipPath><linearGradient
       id="linearGradient100"
       spreadMethod="pad"
       gradientTransform="matrix(-34.8559,398.407,398.407,34.8559,579.067,373.007)"
       gradientUnits="userSpaceOnUse"
       y2="0"
       x2="1"
       y1="0"
       x1="0"><stop
         id="stop90"
         offset="0"
         style="stop-opacity:1;stop-color:#fab220" /><stop
         id="stop92"
         offset="0.314607"
         style="stop-opacity:1;stop-color:#fab220" /><stop
         id="stop94"
         offset="0.691011"
         style="stop-opacity:1;stop-color:#f68b28" /><stop
         id="stop96"
         offset="0.97191"
         style="stop-opacity:1;stop-color:#f25b37" /><stop
         id="stop98"
         offset="1"
         style="stop-opacity:1;stop-color:#f25b37" /></linearGradient></defs><g
     transform="matrix(1.3333333,0,0,-1.3333333,0,145.77333)"
     id="g10"><g
       transform="scale(0.1)"
       id="g12"><path
         id="path14"
         style="fill:#424e54;fill-opacity:1;fill-rule:nonzero;stroke:none"
         d="m 1248.36,449.355 c -11.64,16.297 -36.48,28.719 -63.64,28.719 -27.17,0 -51.99,-12.422 -63.64,-28.719 -14.75,-20.949 -19.4,-36.476 -19.4,-93.136 0,-57.41 4.65,-72.938 19.4,-93.906 11.65,-16.29 36.47,-28.7 63.64,-28.7 27.16,0 52,12.41 63.64,28.7 14.75,20.968 19.41,36.496 19.41,93.136 0,57.43 -4.66,72.957 -19.41,93.906 z m -183.15,57.43 c 21.73,24.063 58.2,50.449 119.51,50.449 61.31,0 97.79,-26.386 119.52,-50.449 30.27,-33.367 42.68,-65.965 42.68,-150.566 0,-85.371 -12.41,-117.969 -42.68,-151.336 -21.73,-24.043 -58.21,-50.442 -119.52,-50.442 -61.31,0 -97.78,26.399 -119.51,50.442 -30.28,33.367 -42.69,65.965 -42.69,151.336 0,84.601 12.41,117.199 42.69,150.566" /><path
         id="path16"
         style="fill:#424e54;fill-opacity:1;fill-rule:nonzero;stroke:none"
         d="m 1665.13,355.449 c 0,61.309 -3.88,122.625 -78.39,122.625 -73.73,0 -77.61,-65.195 -77.61,-122.625 0,-56.64 3.88,-121.836 77.61,-121.836 74.51,0 78.39,61.297 78.39,121.836 z m -235.16,197.137 h 79.16 v -41.133 c 24.84,27.16 61.31,45.781 101.67,45.781 48.12,0 83.04,-21.718 105.55,-51.218 21.73,-27.942 27.93,-53.547 27.93,-150.567 0,-96.222 -6.2,-121.836 -27.93,-149.777 -22.51,-29.492 -57.43,-51.231 -105.55,-51.231 -40.36,0 -72.18,18.633 -101.67,46.563 V 0 h -79.16 v 552.586" /><path
         id="path18"
         style="fill:#424e54;fill-opacity:1;fill-rule:nonzero;stroke:none"
         d="m 2058.6,391.141 c -2.32,59.785 -36.47,91.582 -83.04,91.582 -46.57,0 -81.49,-31.797 -83.03,-91.582 z m -166.07,-65.176 c 0,-64.422 39.57,-97.02 93.91,-97.02 30.25,0 62.85,13.973 86.14,38.035 l 57.43,-48.894 c -38.81,-45.012 -89.26,-63.645 -142.03,-63.645 -80.7,0 -174.62,38.809 -174.62,200.235 0,152.89 86.13,202.558 162.2,202.558 86.93,0 162.21,-64.421 162.21,-166.093 v -65.176 h -245.24" /><path
         id="path20"
         style="fill:#424e54;fill-opacity:1;fill-rule:nonzero;stroke:none"
         d="m 2220.82,552.586 h 79.15 v -41.902 h 1.55 c 24.84,31.023 60.53,46.55 102.44,46.55 61.31,0 131.18,-47.324 131.18,-136.582 v -261.55 h -79.18 v 234.382 c 0,53.547 -33.37,84.59 -77.61,84.59 -45,0 -78.38,-31.043 -78.38,-84.59 V 159.102 h -79.15 v 393.484" /><path
         id="path22"
         style="fill:#424e54;fill-opacity:1;fill-rule:nonzero;stroke:none"
         d="m 2649.98,492.039 h -39.58 v 60.547 h 39.58 v 51.992 c 0,73.723 45.79,107.098 107.11,107.098 h 51.22 v -74.488 h -45.02 c -25.61,0 -34.15,-8.547 -34.15,-32.61 v -51.992 h 79.17 v -60.547 h -79.17 V 159.102 h -79.16 v 332.937" /><path
         id="path24"
         style="fill:#424e54;fill-opacity:1;fill-rule:nonzero;stroke:none"
         d="m 2855.64,552.586 h 79.17 V 159.102 h -79.17 z m 0,159.09 h 79.17 V 632.52 h -79.17 v 79.156" /><path
         id="path26"
         style="fill:#424e54;fill-opacity:1;fill-rule:nonzero;stroke:none"
         d="m 3039.58,552.586 h 79.16 v -41.902 h 1.54 c 24.85,31.023 60.54,46.55 102.45,46.55 31.82,0 58.21,-11.629 82.27,-30.254 l -57.43,-68.32 c -18.62,13.985 -31.83,19.414 -52,19.414 -38.81,0 -76.83,-24.824 -76.83,-82.265 V 159.102 h -79.16 v 393.484" /><path
         id="path28"
         style="fill:#424e54;fill-opacity:1;fill-rule:nonzero;stroke:none"
         d="m 3567.32,391.141 c -2.34,59.785 -36.49,91.582 -83.04,91.582 -46.58,0 -81.51,-31.797 -83.05,-91.582 z m -166.09,-65.176 c 0,-64.422 39.59,-97.02 93.91,-97.02 30.27,0 62.87,13.973 86.14,38.035 l 57.43,-48.894 c -38.79,-45.012 -89.24,-63.645 -142.03,-63.645 -80.7,0 -174.61,38.809 -174.61,200.235 0,152.89 86.14,202.558 162.21,202.558 86.91,0 162.19,-64.421 162.19,-166.093 v -65.176 h -245.24" /><g
         id="g30"><g
           clip-path="url(#clipPath36)"
           id="g32"><path
             id="path50"
             style="fill:url(#radialGradient48);fill-opacity:1;fill-rule:nonzero;stroke:none"
             d="M 556.426,264.305 C 488.684,178.719 364.375,164.266 278.746,232 193.152,299.785 178.723,424.09 246.48,509.688 c 67.758,85.585 192.071,100.046 277.641,32.265 85.59,-67.746 100.043,-192.051 32.305,-277.648 z M 727.992,647.344 C 595.512,826.527 342.836,864.398 163.652,731.902 -15.5352,599.441 -53.4063,346.766 79.0664,167.547 211.559,-11.6289 464.234,-49.4609 643.453,82.9883 822.637,215.488 860.469,468.164 727.992,647.344" /></g></g><g
         id="g52"><g
           clip-path="url(#clipPath58)"
           id="g54"><g
             clip-path="url(#clipPath64)"
             id="g60"><path
               id="path80"
               style="fill:url(#linearGradient78);fill-opacity:1;fill-rule:nonzero;stroke:none"
               d="m 10,451 v 2 h 1 v 6 h 1 v 6 h 1 v 6 h 1 v 6 h 1 v 6 h 1 v 5 h 1 v 6 h 1 v 5 h 1 v 5 h 1 v 5 h 1 v 5 h 1 v 6 h 1 v 4 h 1 v 5 h 1 v 5 h 1 v 4 h 1 v 5 h 1 v 4 h 1 v 5 h 1 v 4 h 1 v 4 h 1 v 4 h 1 v 4 h 1 v 4 h 1 v 4 h 1 v 4 h 1 v 4 h 1 v 4 h 1 v 3 h 1 v 4 h 1 v 3 h 1 v 4 h 1 v 3 h 1 v 4 h 1 v 3 h 1 v 4 h 1 v 3 h 1 v 3 h 1 v 3 h 1 v 3 h 1 v 3 h 1 v 4 h 1 v 3 h 1 v 3 h 1 v 3 h 1 v 2 h 1 v 3 h 1 v 3 h 1 v 3 h 1 v 3 h 1 v 2 h 1 v 3 h 1 v 3 h 1 v 3 h 1 v 2 h 1 v 3 h 1 v 2 h 1 v 3 h 1 v 2 h 1 v 3 h 1 v 2 h 1 v 3 h 1 v 2 h 1 v 2 h 1 v 3 h 1 v 2 h 1 v 2 h 1 v 2 h 1 v 3 h 1 v 2 h 1 v 2 h 1 v 2 h 1 v 2 h 1 v 2 h 1 v 3 h 1 v 2 h 1 v 2 h 1 v 2 h 1 v 2 h 1 v 2 h 1 v 2 h 1 v 2 h 1 v 2 h 1 v 2 h 1 v 1 h 1 v 2 h 1 v 2 h 1 v 2 h 1 v 2 h 1 v 1 h 1 v 2 h 1 v 2 h 1 v 2 h 1 v 2 h 1 v 1 h 1 v 2 h 1 v 2 h 1 v 1 h 1 v 2 h 1 v 1 h 1 v 2 h 1 v 2 h 1 v 1 h 1 v 2 h 1 v 2 h 1 v 1 h 1 v 2 h 1 v 1 h 1 v 2 h 1 v 1 h 1 v 2 h 1 v 1 h 1 v 1 h 1 v 2 h 1 v 1 h 1 v 2 h 1 v 1 h 1 v 2 h 1 v 1 h 1 v 1 h 1 v 2 h 1 v 1 h 1 v 1 h 1 v 2 h 1 v 1 h 1 v 1 h 1 v 2 h 1 v 1 h 1 v 1 h 1 v 1 h 1 v 2 h 1 v 1 h 1 v 1 h 1 v 1 h 1 v 1 h 1 v 2 h 1 v 1 h 1 v 1 h 1 v 1 h 1 v 1 h 1 v 1 h 1 v 2 h 1 v 1 h 1 v 1 h 1 v 1 h 1 v 1 h 1 v 1 h 1 v 1 h 1 v 1 h 1 v 1 h 1 v 1 h 1 v 1 h 1 v 1 h 1 v 1 h 1 v 2 h 1 v 1 h 2 v 1 h 1 v 1 h 1 v 1 h 1 v 1 h 1 v 1 h 1 v 1 h 1 v 1 h 1 v 1 h 1 v 1 h 1 v 1 h 1 v 1 h 1 v 1 h 1 v 1 h 1 v 1 h 2 v 1 h 1 v 1 h 1 v 1 h 1 v 1 h 1 v 1 h 1 v 1 h 2 v 1 h 1 v 1 h 1 v 1 h 1 v 1 h 1 v 1 h 2 v 1 h 1 v 1 h 1 v 1 h 2 v 1 h 1 v 1 h 1 v 1 h 2 v 1 h 1 v 1 h 1 v 1 h 2 v 1 h 1 v 1 h 2 v 1 h 1 v 1 h 2 v 1 h 1 v 1 h 1 v 1 h 2 v 1 h 1 v 1 h 2 v 1 h 2 v 1 h 1 v 1 h 2 v 1 h 1 v 1 h 2 v 1 h 2 v 1 h 1 v 1 h 2 v 1 h 2 v 1 h 2 v 1 h 1 v 1 h 2 v 1 h 2 v 1 h 2 v 1 h 2 v 1 h 2 v 1 h 2 v 1 h 2 v 1 h 2 v 1 h 2 v 1 h 2 v 1 h 2 v 1 h 2 v 1 h 2 v 1 h 3 v 1 h 2 v 1 h 3 v 1 h 2 v 1 h 2 v 1 h 3 v 1 h 2 v 1 h 3 v 1 h 3 v 1 h 3 v 1 h 2 v 1 h 3 v 1 h 3 v 1 h 3 v 1 h 3 v 1 h 4 v 1 h 3 v 1 h 3 v 1 h 4 v 1 h 4 v 1 h 3 v 1 h 4 v 1 h 4 v 1 h 4 v 1 h 5 v 1 h 4 v 1 h 5 v 1 h 5 v 1 h 5 v 1 h 6 v 1 h 6 v 1 h 6 v 1 h 7 v 1 h 7 v 1 h 8 v 1 h 8 v 1 h 9 v 1 h 10 v 1 h 12 v 1 h 13 v 1 h 15 v 1 h 17 v 1 h 19 v 1 h 21 v 1 h 21 v 1 h 19 v 1 h 17 v 1 h 15 v 1 h 12 v 1 h 11 v 1 h 11 v 1 h 9 v 1 h 8 v 1 h 7 v 1 h 8 v 1 h 6 v 1 h 6 v 1 h 6 v 1 h 5 v 1 h 6 v 1 h 5 v 1 h 4 v 1 h 5 v 1 h 4 v 1 h 4 v 1 h 4 v 1 h 4 v 1 h 4 v 1 h 4 v 1 h 3 v 1 h 3 v 1 h 4 v 1 h 3 v 1 h 3 v 1 h 3 v 1 h 3 v 1 h 3 v 1 h 3 v 1 h 2 v 1 h 3 v 1 h 3 v 1 h 2 v 1 h 3 v 1 h 2 v 1 h 2 v 1 h 3 v 1 h 2 v 1 h 2 v 1 h 3 v 1 h 2 v 1 h 2 v 1 h 2 v 1 h 2 v 1 h 2 v 1 h 2 v 1 h 2 v 1 h 2 v 1 h 2 v 1 h 2 v 1 h 1 v 1 h 2 v 1 h 2 v 1 h 2 v 1 h 2 v 1 h 1 v 1 h 2 v 1 h 2 v 1 h 1 v 1 h 2 v 1 h 1 v 1 h 2 v 1 h 2 v 1 h 1 v 1 h 2 v 1 h 1 v 1 h 2 v 1 h 1 v 1 h 1 v 1 h 2 v 1 h 1 v 1 h 2 v 1 h 1 v 1 h 2 v 1 h 1 v 1 h 1 v 1 h 2 v 1 h 1 v 1 h 1 v 1 h 1 v 1 h 2 v 1 h 1 v 1 h 1 v 1 h 1 v 1 h 2 v 1 h 1 v 1 h 1 v 1 h 1 v 1 h 1 v 1 h 1 v 1 h 2 v 1 h 1 v 1 h 1 v 1 h 1 v 1 h 1 v 1 h 1 v 1 h 1 v 1 h 1 v 1 h 2 v 1 h 1 v 1 h 1 v 1 h 1 v 1 h 1 v 1 h 1 v 1 h 1 v 1 h 1 v 1 h 1 v 1 h 1 v 1 h 1 v 1 h 1 v 1 h 1 v 1 h 1 v 2 h 1 v 1 h 1 v 1 h 1 v 1 h 1 v 1 h 1 v 1 h 1 v 1 h 1 v 1 h 1 v 1 h 1 v 2 h 1 v 1 h 1 v 1 h 1 v 1 h 1 v 1 h 1 v 1 h 1 v 2 h 1 v 1 h 1 v 1 h 1 v 1 h 1 v 1 h 1 v 2 h 1 v 1 h 1 v 1 h 1 v 1 h 1 v 1 h 1 v -6 h -1 v -6 h -1 v -6 h -1 v -5 h -1 v -5 h -1 v -5 h -1 v -5 h -1 v -5 h -1 v -4 h -1 v -4 h -1 v -4 h -1 v -4 h -1 v -4 h -1 v -4 h -1 v -4 h -1 v -4 h -1 v -4 h -1 v -4 h -1 v -4 h -1 v -4 h -1 v -3 h -1 v -3 h -1 v -3 h -1 v -4 h -1 v -3 h -1 v -3 h -1 v -3 h -1 v -3 h -1 v -4 h -1 v -3 h -1 v -3 h -1 v -3 h -1 v -4 h -1 v -2 h -1 v -3 h -1 v -3 h -1 v -3 h -1 v -2 h -1 v -3 h -1 v -3 h -1 v -3 h -1 v -2 h -1 v -3 h -1 v -3 h -1 v -3 h -1 v -2 h -1 v -3 h -1 v -2 h -1 v -3 h -1 v -2 h -1 v -2 h -1 v -2 h -1 v -1 h -1 v -2 h -1 v -2 h -1 v -1 h -1 v -2 h -1 v -1 h -1 v -2 h -1 v -1 h -1 v -2 h -1 v -1 h -1 v -2 h -1 v -2 h -1 v -1 h -1 v -2 h -1 v -1 h -1 v -2 h -1 v -1 h -1 v -2 h -1 v -1 h -1 v -1 h -1 v -2 h -1 v -1 h -1 v -1 h -1 v -2 h -1 v -1 h -1 v -1 h -1 v -1 h -1 v -2 h -1 v -1 h -1 v -1 h -1 v -2 h -1 v -1 h -1 v -1 h -1 v -1 h -1 v -2 h -1 v -1 h -1 v -1 h -1 v -1 h -1 v -2 h -1 v -1 h -1 v -1 h -1 v -1 h -1 v -1 h -1 v -1 h -1 v -1 h -1 v -1 h -1 v -1 h -1 v -1 h -1 v -1 h -1 v -1 h -1 v -1 h -1 v -2 h -1 v -1 h -1 v -1 h -1 v -1 h -1 v -1 h -1 v -1 h -1 v -1 h -1 v -1 h -1 v -1 h -1 v -1 h -1 v -1 h -1 v -1 h -1 v -1 h -1 v -1 h -2 v -1 h -1 v -1 h -1 v -1 h -1 v -1 h -1 v -1 h -2 v -1 h -1 v -1 h -1 v -1 h -1 v -1 h -1 v -1 h -2 v -1 h -1 v -1 h -1 v -1 h -1 v -1 h -1 v -1 h -2 v -1 h -1 v -1 h -1 v -1 h -1 v -1 h -2 v -1 h -1 v -1 h -2 v -1 h -1 v -1 h -2 v -1 h -1 v -1 h -2 v -1 h -1 v -1 h -2 v -1 h -1 v -1 h -2 v -1 h -1 v -1 h -2 v -1 h -1 v -1 h -2 v -1 h -1 v -1 h -2 v -1 h -2 v -1 h -2 v -1 h -2 v -1 h -2 v -1 h -1 v -1 h -2 v -1 h -2 v -1 h -2 v -1 h -2 v -1 h -2 v -1 h -2 v -1 h -2 v -1 h -2 v -1 h -2 v -1 h -2 v -1 h -3 v -1 h -2 v -1 h -3 v -1 h -2 v -1 h -3 v -1 h -2 v -1 h -3 v -1 h -2 v -1 h -3 v -1 h -3 v -1 h -3 v -1 h -3 v -1 h -3 v -1 h -4 v -1 h -3 v -1 h -3 v -1 h -4 v -1 h -3 v -1 h -4 v -1 h -5 v -1 h -4 v -1 h -5 v -1 h -4 v -1 h -5 v -1 h -5 v -1 h -6 v -1 h -6 v -1 h -7 v -1 h -6 v -1 h -9 v -1 h -9 v -1 h -10 v -1 h -13 v -1 h -15 v -1 h -21 v -1 h -34 v -1 h -54 v -1 h -36 v -1 h -23 v -1 h -16 v -1 h -12 v -1 h -11 v -1 h -10 v -1 h -8 v -1 h -6 v -1 h -7 v -1 h -7 v -1 h -6 v -1 h -5 v -1 h -5 v -1 h -5 v -1 h -5 v -1 h -4 v -1 h -5 v -1 h -3 v -1 h -4 v -1 h -3 v -1 h -4 v -1 h -3 v -1 h -4 v -1 h -4 v -1 h -3 v -1 h -3 v -1 h -2 v -1 h -3 v -1 h -3 v -1 h -2 v -1 h -3 v -1 h -3 v -1 h -2 v -1 h -3 v -1 h -3 v -1 h -2 v -1 h -2 v -1 h -2 v -1 h -2 v -1 h -2 v -1 h -2 v -1 h -2 v -1 h -2 v -1 h -2 v -1 h -3 v -1 h -2 v -1 h -2 v -1 h -2 v -1 h -2 v -1 h -1 v -1 h -2 v -1 h -2 v -1 h -1 v -1 h -2 v -1 h -1 v -1 h -2 v -1 h -2 v -1 h -1 v -1 h -2 v -1 h -2 v -1 h -1 v -1 h -2 v -1 h -1 v -1 h -2 v -1 h -2 v -1 h -1 v -1 h -1 v -1 h -2 v -1 h -1 v -1 h -1 v -1 h -1 v -1 h -2 v -1 h -1 v -1 h -1 v -1 h -2 v -1 h -1 v -1 h -1 v -1 h -2 v -1 h -1 v -1 h -1 v -1 h -1 v -1 h -2 v -1 h -1 v -1 h -1 v -1 h -2 v -1 h -1 v -1 h -1 v -1 h -1 v -1 h -1 v -1 h -1 v -1 h -1 v -1 h -1 v -1 h -1 v -1 h -1 v -1 h -1 v -1 h -1 v -1 h -1 v -1 h -1 v -1 h -1 v -1 h -1 v -1 h -1 v -1 h -1 v -1 h -1 v -1 h -1 v -1 h -1 v -1 h -2 v -1 h -1 v -1 h -1 v -2 h -1 v -1 h -1 v -1 h -1 v -1 h -1 v -1 h -1 v -1 h -1 v -2 h -1 v -1 h -1 v -1 h -1 v -1 h -1 v -1 h -1 v -2 h -1 v -1 h -1 v -1 h -1 v -1 h -1 v -1 h -1 v -1 h -1 v -2 h -1 v -1 h -1 v -1 h -1 v -1 h -1 v -1 h -1 v -1 h -1 v -2 h -1 v -1 h -1 v -2 h -1 v -1 h -1 v -2 h -1 v -1 h -1 v -2 h -1 v -1 h -1 v -1 h -1 v -2 h -1 v -1 h -1 v -2 h -1 v -1 h -1 v -2 h -1 v -1 h -1 v -1 h -1 v -2 h -1 v -1 h -1 v -2 h -1 v -1 h -1 v -2 h -1 v -1 h -1 v -2 h -1 v -2 h -1 v -1 h -1 v -2 h -1 v -2 h -1 v -2 h -1 v -1 h -1 v -2 h -1 v -2 h -1 v -2 h -1 v -1 h -1 v -2 h -1 v -2 h -1 v -2 h -1 v -2 h -1 v -1 h -1 v -2 h -1 v -2 h -1 v -2 h -1 v -1 h -1 v -2 h -1 v -2 h -1 v -3 h -1 v -2 h -1 v -2 h -1 v -2 h -1 v -2 h -1 v -2 h -1 v -3 h -1 v -2 h -1 v -2 h -1 v -2 h -1 v -2 h -1 v -2 h -1 v -3 h -1 v -2 h -1 v -2 h -1 v -2 h -1 v -2 h -1 v -2 h -1 v -3 h -1 v -3 h -1 v -2 h -1 v -3 h -1 v -2 h -1 v -3 h -1 v -2 h -1 v -3 h -1 v -3 h -1 v -2 h -1 v -3 h -1 v -2 h -1 v -3 h -1 v -3 h -1 v -3 h -1 v -3 h -1 v -3" /></g></g></g><g
         id="g82"><g
           clip-path="url(#clipPath88)"
           id="g84"><path
             id="path102"
             style="fill:url(#linearGradient100);fill-opacity:1;fill-rule:nonzero;stroke:none"
             d="M 185.152,338.543 C 305.996,1120.58 679.039,467.605 938.129,805.879 929.023,747.941 912.668,688.719 888.277,628.242 678.152,258.66 362.859,862.52 185.152,338.543" /></g></g><path
         id="path104"
         style="fill:#a4a9a8;fill-opacity:1;fill-rule:nonzero;stroke:none"
         d="m 229.441,343.445 c -12.609,108.457 65.071,206.543 173.504,219.2 31.528,3.644 62.137,-0.528 90.086,-10.704 -37.871,25.821 -84.773,38.723 -133.855,33.047 C 250.738,572.332 173.059,474.246 185.668,365.789 c 8.926,-76.883 60.957,-138.094 129.066,-162.84 -45.796,31.16 -78.394,81.16 -85.293,140.496" /><path
         id="path106"
         style="fill:#424e54;fill-opacity:1;fill-rule:nonzero;stroke:none"
         d="m 3689.01,561.863 h -23.02 v 11.328 h 58.81 v -11.328 h -23.01 V 489.09 h -12.78 v 72.773" /><path
         id="path108"
         style="fill:#424e54;fill-opacity:1;fill-rule:nonzero;stroke:none"
         d="m 3733.8,573.191 h 12.04 l 24.1,-54.804 23.63,54.804 h 12.05 V 489.09 h -12.75 v 52.441 h -0.23 l -17.61,-40.398 h -10.65 l -17.58,40.398 h -0.24 V 489.09 h -12.76 v 84.101" /></g></g></svg>