<svg xmlns="http://www.w3.org/2000/svg" xmlns:xlink="http://www.w3.org/1999/xlink" viewBox="0 0 503.71 142.67">
  <defs>
    <style>
      .cls-1 {
        fill: url(#linear-gradient);
      }

      .cls-2 {
        fill: url(#linear-gradient-2);
      }

      .cls-3 {
        fill: url(#linear-gradient-3);
      }

      .cls-4 {
        fill: url(#linear-gradient-4);
      }
    </style>
    <linearGradient id="linear-gradient" x1="183.24" y1="71.67" x2="380.55" y2="71.67" gradientUnits="userSpaceOnUse">
      <stop offset="0" stop-color="#f1b41c"/>
      <stop offset="0.49" stop-color="#f1b41c"/>
      <stop offset="1" stop-color="#f1b41c"/>
    </linearGradient>
    <linearGradient id="linear-gradient-2" x1="392.13" y1="71.67" x2="406.13" y2="71.67" xlink:href="#linear-gradient"/>
    <linearGradient id="linear-gradient-3" x1="417.35" y1="71.33" x2="457.27" y2="71.33" xlink:href="#linear-gradient"/>
    <linearGradient id="linear-gradient-4" x1="469.15" y1="71.67" x2="503.71" y2="71.67" xlink:href="#linear-gradient"/>
  </defs>
  <title>logo</title>
  <g id="Layer_2" data-name="Layer 2">
    <g id="Layer_1-2" data-name="Layer 1">
      <g>
        <g>
          <path class="cls-1" d="M373.55,7.81a7,7,0,0,0-7,7V65.45h-12.5v-36a7,7,0,0,0-14,0v36H210a14.08,14.08,0,1,0,0,12.44h130.1v36a7,7,0,1,0,14,0v-36h12.5v50.64a7,7,0,1,0,14,0V14.81A7,7,0,0,0,373.55,7.81Z"/>
          <path class="cls-2" d="M399.13,1.29a7,7,0,0,0-7,7V135.05a7,7,0,1,0,14,0V8.29A7,7,0,0,0,399.13,1.29Z"/>
          <path class="cls-3" d="M450.79,2.49A6.49,6.49,0,0,0,444.3,9V71l-6.8,33.43c-2.38-11.12-4.78-22.35-7.18-33.47V6.49a6.49,6.49,0,1,0-13,0V71.67A6.32,6.32,0,0,0,417.5,73c3.82,17.75,13.79,64.49,13.79,64.49a6.48,6.48,0,0,0,6.34,5.14h0a6.5,6.5,0,0,0,6.33-5.19C447.14,122.07,457.14,73,457.14,73a6.3,6.3,0,0,0,.13-1.3V9A6.48,6.48,0,0,0,450.79,2.49Z"/>
          <path class="cls-4" d="M491.06,111.06a80.75,80.75,0,0,1-7.91,4.94V77.89h14.33a6.22,6.22,0,1,0,0-12.44H483.15V27.34a80.75,80.75,0,0,1,7.91,4.94,7,7,0,0,0,8.11-11.42A101.43,101.43,0,0,0,478.79,9.8a7,7,0,0,0-9.64,6.49V127.06a7,7,0,0,0,7,7,6.9,6.9,0,0,0,2.64-.52,101.43,101.43,0,0,0,20.38-11.06,7,7,0,0,0-8.11-11.42Z"/>
        </g>
        <g>
          <path d="M0,29.4H6.71V53H0Z"/>
          <path d="M30.25,44.44c-1.3-1.75-2.44-3.35-3.61-5l-.07,0c0,2,.07,4,.07,6V53H20.19V29.4h6.28l6.26,8.53c1.3,1.76,2.44,3.36,3.61,5l.07,0c0-2-.07-4-.07-6V29.4h6.45V53H36.5Z"/>
          <path d="M56.27,29.4H63c4.89,0,8.57.81,11.08,2.7s4,5.15,4,9.12a11,11,0,0,1-3.35,8.5c-2.35,2.12-6,3.26-11.63,3.26h-6.9Zm7,17.91c4.26,0,6-.85,7-2.05a6.28,6.28,0,0,0,1.21-4,5.67,5.67,0,0,0-2-4.82c-1.44-1.07-3.59-1.33-6.22-1.33H63V47.31Z"/>
          <path d="M90.53,41.81V29.4h6.71v12c0,2.28.26,3.61.91,4.52a4,4,0,0,0,3.42,1.57,4,4,0,0,0,3.22-1.37c.75-.91,1.11-2.41,1.11-4.72v-12h6.45V41.81c0,3.58-.69,6-2,7.78-1.76,2.34-5,3.74-8.92,3.74s-7.26-1.33-9-3.84C91.15,47.77,90.53,45.26,90.53,41.81Z"/>
          <path d="M125.73,45.42a18,18,0,0,0,7.75,2.35c1.37,0,2.35-.49,2.35-1.7,0-1.69-1.89-1.69-4.89-2.73-3.58-1.24-6-3-6-6.81,0-4.59,3.54-7.49,8.82-7.49a18.44,18.44,0,0,1,7.68,1.73V37a17.73,17.73,0,0,0-7.62-2.35c-1.23,0-2.08.39-2.08,1.43,0,1.53,1.82,1.53,4.69,2.54,3.68,1.31,6.25,3.13,6.25,7.1,0,4.76-3.74,7.65-9.21,7.65a19.37,19.37,0,0,1-7.69-1.62Z"/>
          <path d="M160.61,35.07h-7.49V29.4H174.8v5.67h-7.48V53h-6.71Z"/>
          <path d="M186.63,29.4h8.24a14.75,14.75,0,0,1,6.6,1.17,6.45,6.45,0,0,1,3.82,6.16A6.5,6.5,0,0,1,201,43.08l6.26,9.9h-7.59l-5.24-9h-1v9h-6.7Zm8.36,10a5.19,5.19,0,0,0,2.64-.49,2,2,0,0,0,1-1.85,2,2,0,0,0-1.14-2,6.87,6.87,0,0,0-2.87-.39h-1.24v4.69Z"/>
          <path d="M218.08,29.4h6.71V53h-6.71Z"/>
          <path d="M250.06,29c7.1,0,12.6,5.34,12.6,12.15s-5.5,12.14-12.6,12.14-12.6-5.34-12.6-12.14S243,29,250.06,29Zm0,18.27a6.12,6.12,0,1,0-5.89-6.12A5.95,5.95,0,0,0,250.06,47.31Z"/>
          <path d="M275.14,41.81V29.4h6.7v12c0,2.28.27,3.61.92,4.52a4,4,0,0,0,3.42,1.57,4,4,0,0,0,3.22-1.37c.75-.91,1.11-2.41,1.11-4.72v-12H297V41.81c0,3.58-.68,6-2,7.78-1.76,2.34-5,3.74-8.93,3.74S278.78,52,277,49.49C275.76,47.77,275.14,45.26,275.14,41.81Z"/>
          <path d="M310.34,45.42a18,18,0,0,0,7.75,2.35c1.37,0,2.34-.49,2.34-1.7,0-1.69-1.89-1.69-4.88-2.73-3.58-1.24-6.06-3-6.06-6.81,0-4.59,3.55-7.49,8.83-7.49A18.44,18.44,0,0,1,326,30.77V37a17.73,17.73,0,0,0-7.62-2.35c-1.24,0-2.08.39-2.08,1.43,0,1.53,1.82,1.53,4.69,2.54,3.68,1.31,6.25,3.13,6.25,7.1,0,4.76-3.75,7.65-9.22,7.65a19.32,19.32,0,0,1-7.68-1.62Z"/>
        </g>
      </g>
    </g>
  </g>
</svg>
